<svg width="110" height="110" viewBox="0 0 110 110" fill="none" xmlns="http://www.w3.org/2000/svg">
<path d="M75.5761 54.3411V86H18V44.4098H58.0449H59.3367M75.5761 54.3411L92 45.8086V17.3669C92 17.3669 89.6304 15.6929 88.3538 14.1047C87.1216 12.5718 85.9102 10 85.9102 10H65.288C65.288 10 64.6618 12.5659 63.4629 14.1047C62.2103 15.7124 59.3367 17.3669 59.3367 17.3669V44.4098M75.5761 54.3411L59.3367 44.4098M70.9626 31.0748L74.2843 34.0589L81.4813 27.9975M26.3965 52.4294H37.6534V63.6196H26.3965V52.4294ZM25.2893 72.5718H31.1945V77.0479H25.2893V72.5718ZM62.3815 72.5718H68.2868V77.0479H62.3815V72.5718ZM50.0175 72.5718H55.9227V77.0479H50.0175V72.5718ZM37.6534 72.5718H43.5586V77.0479H37.6534V72.5718Z" stroke="#C5358C" stroke-width="3" stroke-linecap="round" stroke-linejoin="round"/>
</svg>
