<svg width="110" height="110" viewBox="0 0 110 110" fill="none" xmlns="http://www.w3.org/2000/svg">
<path fill-rule="evenodd" clip-rule="evenodd" d="M30.5 16C29.6716 16 29 16.6716 29 17.5V91.5C29 92.3284 29.6716 93 30.5 93H79.5C80.3284 93 81 92.3284 81 91.5V73.37V17.5C81 16.6716 80.3284 16 79.5 16H55H30.5ZM78 19V71.87H32V19H55H78ZM78 90V74.87H32V90H78ZM48.9664 81.86C48.138 81.86 47.4664 82.5316 47.4664 83.36C47.4664 84.1884 48.138 84.86 48.9664 84.86H59.2052C60.0337 84.86 60.7052 84.1884 60.7052 83.36C60.7052 82.5316 60.0337 81.86 59.2052 81.86H48.9664ZM43.9487 32.9535C44.2426 32.6678 44.65 32.5 45.0833 32.5H50.2451L52.4491 37.8568L49.7234 39.4468C49.0373 39.847 48.7821 40.7127 49.1414 41.4211C50.9446 44.9757 53.8991 47.844 57.539 49.5892C58.2307 49.9209 59.0611 49.6772 59.464 49.0245L61.1205 46.3403L66.7083 48.5134V53.4826C66.7083 53.866 66.5521 54.2425 66.2596 54.5268C65.9743 54.8042 65.5821 54.9704 65.1629 54.9799C59.522 54.6346 54.2111 52.3005 50.2249 48.425C46.2411 44.5518 43.8548 39.4071 43.5005 33.9585C43.5108 33.5887 43.6662 33.2281 43.9487 32.9535ZM45.0833 29.5C43.8812 29.5 42.72 29.9639 41.8575 30.8025C40.9935 31.6425 40.5 32.791 40.5 33.9977C40.5 34.0289 40.501 34.0601 40.5029 34.0913C40.892 40.3157 43.6105 46.1784 48.1337 50.576C52.6558 54.9725 58.669 57.6015 65.0365 57.9777C65.066 57.9795 65.0955 57.9803 65.125 57.9803C66.3272 57.9803 67.4883 57.5164 68.3509 56.6778C69.2149 55.8378 69.7083 54.6894 69.7083 53.4826V47.4873C69.7083 46.8686 69.3286 46.3135 68.752 46.0893L61.0437 43.0916C60.3692 42.8293 59.6036 43.086 59.2235 43.7018L57.6501 46.2514C55.5542 45.0144 53.7951 43.3128 52.515 41.2915L55.0891 39.7899C55.736 39.4126 56.0054 38.616 55.7205 37.9235L52.6372 30.4293C52.4058 29.867 51.858 29.5 51.25 29.5H45.0833Z" fill="#C5358C"/>
</svg>
