<svg width="110" height="110" viewBox="0 0 110 110" fill="none" xmlns="http://www.w3.org/2000/svg">
<path fill-rule="evenodd" clip-rule="evenodd" d="M20.4865 18C19.6655 18 19 18.6655 19 19.4865V75.7793C19 76.6002 19.6655 77.2657 20.4865 77.2657H54.9741V75.9869C55.0846 88.1634 64.8976 98 76.9866 98C89.1442 98 99 88.0514 99 75.7791C99 63.5301 89.1815 53.596 77.0556 53.5584H79.2078V19.4865C79.2078 18.6655 78.5423 18 77.7213 18H20.4865ZM76.9176 53.5584H76.2348V20.973H59.3954V34.3004C59.3954 34.8337 59.1097 35.3262 58.6467 35.5909C58.1836 35.8556 57.6143 35.8519 57.1547 35.5813L49.0743 30.8233L40.2743 35.6064C39.8137 35.8567 39.2553 35.846 38.8047 35.578C38.3541 35.3101 38.078 34.8246 38.078 34.3004V20.973H21.973V74.2928H54.9741V75.5714C55.0844 63.418 64.8603 53.5958 76.9176 53.5584ZM41.0509 31.8005V20.973H56.4225V31.7L49.8578 27.8346C49.408 27.5697 48.8523 27.5602 48.3937 27.8095L41.0509 31.8005ZM29.2914 49.1091C28.4704 49.1091 27.8049 49.7746 27.8049 50.5956C27.8049 51.4166 28.4704 52.0821 29.2914 52.0821H45.4355C46.2565 52.0821 46.922 51.4166 46.922 50.5956C46.922 49.7746 46.2565 49.1091 45.4355 49.1091H29.2914ZM86.0323 72.4592C86.6531 71.922 86.7209 70.9832 86.1838 70.3624C85.6466 69.7416 84.7079 69.6737 84.087 70.2109L75.0244 78.0521L71.5764 73.4115C71.0867 72.7525 70.1556 72.6152 69.4966 73.1048C68.8377 73.5944 68.7004 74.5255 69.19 75.1845L73.5929 81.1105C73.8395 81.4423 74.2131 81.6565 74.624 81.7015C75.0349 81.7466 75.4461 81.6185 75.7587 81.348L86.0323 72.4592ZM27.8049 62.4467C27.8049 61.6257 28.4704 60.9602 29.2914 60.9602H41.0326C41.8535 60.9602 42.519 61.6257 42.519 62.4467C42.519 63.2676 41.8535 63.9332 41.0326 63.9332H29.2914C28.4704 63.9332 27.8049 63.2676 27.8049 62.4467ZM96.0649 75.7791C96.0649 86.4151 87.5232 95.0372 76.9866 95.0372C66.4499 95.0372 57.9083 86.4151 57.9083 75.7791C57.9083 65.1432 66.4499 56.5211 76.9866 56.5211C87.5232 56.5211 96.0649 65.1432 96.0649 75.7791Z" fill="#C5358C"/>
</svg>
