<svg width="110" height="110" viewBox="0 0 110 110" fill="none" xmlns="http://www.w3.org/2000/svg">
<path fill-rule="evenodd" clip-rule="evenodd" d="M15 31.4865C15 30.6655 15.6655 30 16.4865 30H32.7247H51.9158H67.4167C68.2376 30 68.9031 30.6655 68.9031 31.4865V38.84H81.4412C82.0807 38.84 82.6486 39.249 82.8512 39.8556L87.6788 54.3102H92.513C93.334 54.3102 93.9995 54.9757 93.9995 55.7966V75.6868C93.9995 76.5078 93.334 77.1733 92.513 77.1733H90.1921C89.4702 82.165 85.1664 86.0004 79.965 86.0004C74.5105 86.0004 70.043 81.7826 69.6582 76.4366H67.4311L67.4167 76.4367H45.984C45.5992 81.7826 41.1317 86.0004 35.6772 86.0004C30.2228 86.0004 25.7553 81.7826 25.3705 76.4367H16.4865C15.6655 76.4367 15 75.7712 15 74.9502V31.4865ZM69.872 73.4637C70.8907 68.8364 75.0226 65.3735 79.965 65.3735C85.1663 65.3735 89.4701 69.2088 90.1921 74.2003H91.0265V57.2831H86.6081H68.9035V73.4637H69.872ZM65.9302 73.4637H45.7702C44.7516 68.8364 40.6196 65.3735 35.6772 65.3735C30.7349 65.3735 26.6029 68.8364 25.5843 73.4637H17.973V32.973H31.2382V46.22C31.2382 46.7429 31.5131 47.2275 31.9619 47.4958C32.4108 47.7642 32.9677 47.7769 33.4284 47.5293L42.3203 42.7508L51.2121 47.5293C51.6728 47.7769 52.2297 47.7642 52.6786 47.4958C53.1274 47.2275 53.4023 46.7429 53.4023 46.22V32.973H65.9302V73.4637ZM68.9031 54.3102H84.5444L80.3705 41.813H68.9031V54.3102ZM34.2112 32.973H50.4293V43.7336L43.0239 39.7539C42.5845 39.5177 42.056 39.5177 41.6166 39.7539L34.2112 43.7336V32.973ZM46.0012 56.5332C46.0012 55.7123 46.6667 55.0468 47.4877 55.0468H57.8214C58.6423 55.0468 59.3078 55.7123 59.3078 56.5332C59.3078 57.3542 58.6423 58.0197 57.8214 58.0197H47.4877C46.6667 58.0197 46.0012 57.3542 46.0012 56.5332ZM50.4402 63.887C49.6192 63.887 48.9537 64.5525 48.9537 65.3735C48.9537 66.1945 49.6192 66.86 50.4402 66.86H57.8206C58.6415 66.86 59.3071 66.1945 59.3071 65.3735C59.3071 64.5525 58.6415 63.887 57.8206 63.887H50.4402ZM35.6772 83.0274C39.7479 83.0274 43.0379 79.7355 43.0379 75.6869C43.0379 71.6384 39.7479 68.3465 35.6772 68.3465C31.6066 68.3465 28.3166 71.6384 28.3166 75.6869C28.3166 79.7355 31.6066 83.0274 35.6772 83.0274ZM87.3257 75.6869C87.3257 79.7355 84.0357 83.0274 79.965 83.0274C75.8943 83.0274 72.6043 79.7355 72.6043 75.6869C72.6043 71.6384 75.8943 68.3465 79.965 68.3465C84.0357 68.3465 87.3257 71.6384 87.3257 75.6869Z" fill="#C5358C"/>
</svg>
