<svg width="110" height="110" viewBox="0 0 110 110" fill="none" xmlns="http://www.w3.org/2000/svg">
<path fill-rule="evenodd" clip-rule="evenodd" d="M15 16.4865C15 15.6655 15.6655 15 16.4865 15H26.0056C26.7171 15 27.3287 15.5041 27.4647 16.2024L30.5479 32.036H87.514C88.335 32.036 89.0005 32.7015 89.0005 33.5225V44.6329V55.0026V65.3723C89.0005 66.1933 88.335 66.8588 87.514 66.8588H35.5248H27.4921V79.4404H87.514C88.335 79.4404 89.0005 80.1059 89.0005 80.9269C89.0005 81.7478 88.335 82.4134 87.514 82.4134H77.3712C78.663 83.7489 79.4593 85.5769 79.4593 87.593C79.4593 91.6838 76.181 95 72.1369 95C68.0928 95 64.8145 91.6838 64.8145 87.593C64.8145 85.5769 65.6108 83.7489 66.9026 82.4134H48.0809C49.3728 83.7489 50.1691 85.5769 50.1691 87.593C50.1691 91.6838 46.8907 95 42.8466 95C38.8026 95 35.5242 91.6838 35.5242 87.593C35.5242 85.5769 36.3205 83.7489 37.6124 82.4134H26.0056C25.1847 82.4134 24.5192 81.7478 24.5192 80.9269V65.3723C24.5192 64.5513 25.1847 63.8858 26.0056 63.8858H33.7209L32.0465 55.2867L30.0273 44.917L27.8638 33.8066L24.7807 17.973H16.4865C15.6655 17.973 15 17.3075 15 16.4865ZM36.7498 63.8858H86.0275V56.4891H35.3094L36.7498 63.8858ZM34.7305 53.5161H86.0275V46.1194H33.2902L34.7305 53.5161ZM32.7113 43.1464H86.0275V35.0089H31.1268L32.7113 43.1464ZM42.8466 92.027C45.2167 92.027 47.1961 90.0741 47.1961 87.593C47.1961 85.112 45.2167 83.1591 42.8466 83.1591C40.4766 83.1591 38.4972 85.112 38.4972 87.593C38.4972 90.0741 40.4766 92.027 42.8466 92.027ZM76.4864 87.593C76.4864 90.0741 74.507 92.027 72.1369 92.027C69.7668 92.027 67.7874 90.0741 67.7874 87.593C67.7874 85.112 69.7668 83.1591 72.1369 83.1591C74.507 83.1591 76.4864 85.112 76.4864 87.593Z" fill="#C5358C"/>
</svg>
