<svg width="110" height="110" viewBox="0 0 110 110" fill="none" xmlns="http://www.w3.org/2000/svg">
<path opacity="0.9" d="M46.7907 30H16V81H46.7907M46.7907 30H92V81H46.7907M46.7907 30V81M23.6279 55.3591H38.3256M23.6279 66.7238H38.3256M23.6279 43.6188H38.3256M77.0251 40.4254L62.4186 69.0718M84.1861 63.5304C84.1861 67.0577 81.3956 69.9171 77.9535 69.9171C74.5113 69.9171 71.7209 67.0577 71.7209 63.5304C71.7209 60.0031 74.5113 57.1436 77.9535 57.1436C81.3956 57.1436 84.1861 60.0031 84.1861 63.5304ZM67.4419 46.2486C67.4419 49.7759 64.6515 52.6354 61.2093 52.6354C57.7672 52.6354 54.9767 49.7759 54.9767 46.2486C54.9767 42.7213 57.7672 39.8619 61.2093 39.8619C64.6515 39.8619 67.4419 42.7213 67.4419 46.2486Z" stroke="#C5358C" stroke-width="3" stroke-linecap="round" stroke-linejoin="round"/>
</svg>
