<svg width="161" height="30" viewBox="0 0 161 30" fill="none" xmlns="http://www.w3.org/2000/svg">
<path d="M14.0489 2.92705C14.3483 2.00574 15.6517 2.00574 15.9511 2.92705L18.1432 9.67376C18.2771 10.0858 18.661 10.3647 19.0943 10.3647H26.1882C27.1569 10.3647 27.5597 11.6044 26.7759 12.1738L21.0369 16.3435C20.6864 16.5981 20.5397 17.0495 20.6736 17.4615L22.8657 24.2082C23.1651 25.1295 22.1106 25.8956 21.3269 25.3262L15.5878 21.1565C15.2373 20.9019 14.7627 20.9019 14.4122 21.1565L8.67312 25.3262C7.88941 25.8956 6.83493 25.1295 7.13428 24.2082L9.32642 17.4615C9.46029 17.0495 9.31363 16.5981 8.96315 16.3435L3.22405 12.1738C2.44034 11.6044 2.84311 10.3647 3.81184 10.3647H10.9057C11.339 10.3647 11.7229 10.0858 11.8568 9.67376L14.0489 2.92705Z" fill="#111111"/>
<path d="M145.049 2.92705C145.348 2.00574 146.652 2.00574 146.951 2.92705L149.143 9.67376C149.277 10.0858 149.661 10.3647 150.094 10.3647H157.188C158.157 10.3647 158.56 11.6044 157.776 12.1738L152.037 16.3435C151.686 16.5981 151.54 17.0495 151.674 17.4615L153.866 24.2082C154.165 25.1295 153.111 25.8956 152.327 25.3262L146.588 21.1565C146.237 20.9019 145.763 20.9019 145.412 21.1565L139.673 25.3262C138.889 25.8956 137.835 25.1295 138.134 24.2082L140.326 17.4615C140.46 17.0495 140.314 16.5981 139.963 16.3435L134.224 12.1738C133.44 11.6044 133.843 10.3647 134.812 10.3647H141.906C142.339 10.3647 142.723 10.0858 142.857 9.67376L145.049 2.92705Z" fill="#111111"/>
<path d="M112.049 2.92705C112.348 2.00574 113.652 2.00574 113.951 2.92705L116.143 9.67376C116.277 10.0858 116.661 10.3647 117.094 10.3647H124.188C125.157 10.3647 125.56 11.6044 124.776 12.1738L119.037 16.3435C118.686 16.5981 118.54 17.0495 118.674 17.4615L120.866 24.2082C121.165 25.1295 120.111 25.8956 119.327 25.3262L113.588 21.1565C113.237 20.9019 112.763 20.9019 112.412 21.1565L106.673 25.3262C105.889 25.8956 104.835 25.1295 105.134 24.2082L107.326 17.4615C107.46 17.0495 107.314 16.5981 106.963 16.3435L101.224 12.1738C100.44 11.6044 100.843 10.3647 101.812 10.3647H108.906C109.339 10.3647 109.723 10.0858 109.857 9.67376L112.049 2.92705Z" fill="#111111"/>
<path d="M79.0489 2.92705C79.3483 2.00574 80.6517 2.00574 80.9511 2.92705L83.1432 9.67376C83.2771 10.0858 83.661 10.3647 84.0943 10.3647H91.1882C92.1569 10.3647 92.5597 11.6044 91.7759 12.1738L86.0369 16.3435C85.6864 16.5981 85.5397 17.0495 85.6736 17.4615L87.8657 24.2082C88.1651 25.1295 87.1106 25.8956 86.3269 25.3262L80.5878 21.1565C80.2373 20.9019 79.7627 20.9019 79.4122 21.1565L73.6731 25.3262C72.8894 25.8956 71.8349 25.1295 72.1343 24.2082L74.3264 17.4615C74.4603 17.0495 74.3136 16.5981 73.9631 16.3435L68.2241 12.1738C67.4403 11.6044 67.8431 10.3647 68.8118 10.3647H75.9057C76.339 10.3647 76.7229 10.0858 76.8568 9.67376L79.0489 2.92705Z" fill="#111111"/>
<path d="M47.0489 2.92705C47.3483 2.00574 48.6517 2.00574 48.9511 2.92705L51.1432 9.67376C51.2771 10.0858 51.661 10.3647 52.0943 10.3647H59.1882C60.1569 10.3647 60.5597 11.6044 59.7759 12.1738L54.0369 16.3435C53.6864 16.5981 53.5397 17.0495 53.6736 17.4615L55.8657 24.2082C56.1651 25.1295 55.1106 25.8956 54.3269 25.3262L48.5878 21.1565C48.2373 20.9019 47.7627 20.9019 47.4122 21.1565L41.6731 25.3262C40.8894 25.8956 39.8349 25.1295 40.1343 24.2082L42.3264 17.4615C42.4603 17.0495 42.3136 16.5981 41.9631 16.3435L36.2241 12.1738C35.4403 11.6044 35.8431 10.3647 36.8118 10.3647H43.9057C44.339 10.3647 44.7229 10.0858 44.8568 9.67376L47.0489 2.92705Z" fill="#111111"/>
</svg>
